<svg width="40" height="40" viewBox="0 0 40 40" fill="none" xmlns="http://www.w3.org/2000/svg">
<g clip-path="url(#clip0_317_53)">
<path d="M0 0.210938C0.0078125 0.398438 0.015625 0.406251 0.0859375 0.296876C0.125 0.218751 0.21875 0.125001 0.296875 0.0859381C0.40625 0.0156256 0.398438 0.00781307 0.21875 5.66244e-07C0.03125 5.66244e-07 0 0.0312506 0 0.210938Z" fill="white"/>
<path d="M12.0156 0.15625C12.125 0.265625 12.1875 0.414062 12.1875 0.585938C12.1875 0.757812 12.125 0.90625 12.0156 1.01562C11.8594 1.16406 11.75 1.17188 10.4531 1.17188H9.0625V3.125V5.07812H20H30.9375V3.125V1.17188H22.5547H14.1641L14 0.992188C13.9062 0.890625 13.8281 0.710938 13.8281 0.585938C13.8281 0.460938 13.9062 0.28125 14 0.179688L14.1641 0H13.0078H11.8438L12.0156 0.15625Z" fill="white"/>
<path d="M39.7031 0.0859381C39.7812 0.125001 39.875 0.218751 39.9141 0.296876C39.9844 0.406251 39.9922 0.398438 40 0.210938C40 0.0312506 39.9687 5.66244e-07 39.7891 5.66244e-07C39.6016 0.00781307 39.5938 0.0156256 39.7031 0.0859381Z" fill="white"/>
<path d="M1.17188 20V38.8281H4.53125H7.89062V36.4844C7.89062 34.2578 7.89844 34.1328 8.04688 33.9844C8.13281 33.8984 8.28125 33.8125 8.375 33.7891C8.47656 33.7656 12.4609 33.7578 17.2344 33.7656C25.6484 33.7891 25.9297 33.7969 26.0859 33.9375C26.2969 34.1328 26.3047 34.5547 26.0938 34.7656C25.9375 34.9219 25.8359 34.9219 17.5 34.9219H9.0625V36.875V38.8281H20H30.9375V36.875V34.9219H29.5781C28.3984 34.9219 28.1953 34.9062 28.0547 34.7812C27.8203 34.5938 27.8125 34.1875 28.0391 33.9609C28.1953 33.7969 28.2812 33.7891 29.8203 33.7656C31.5703 33.7422 31.7266 33.7578 31.9531 33.9844C32.1016 34.1328 32.1094 34.2578 32.1094 36.4844V38.8281H35.4688H38.8281V20V1.17188H35.4688H32.1094V3.46875C32.1094 4.73438 32.0859 5.82812 32.0625 5.89844C31.9219 6.26562 32.3359 6.25 20 6.25C7.66406 6.25 8.07812 6.26562 7.9375 5.89844C7.91406 5.82812 7.89062 4.73438 7.89062 3.46875V1.17188H4.53125H1.17188V20ZM6.375 3.22656C6.55469 3.4375 6.5625 3.47656 6.5625 4.85156V6.26562L6.33594 6.49219L6.10938 6.71875H4.53125H2.95312L2.72656 6.49219L2.5 6.26562V4.86719C2.5 3.375 2.53906 3.20312 2.92188 3.04688C3.00781 3.00781 3.78125 2.98438 4.63281 2.99219L6.1875 3.00781L6.375 3.22656ZM37.3125 3.22656C37.4922 3.4375 37.5 3.47656 37.5 4.85156V6.26562L37.2734 6.49219L37.0469 6.71875H35.4688H33.8906L33.6641 6.49219L33.4375 6.26562V4.86719C33.4375 3.375 33.4766 3.20312 33.8594 3.04688C33.9453 3.00781 34.7188 2.98438 35.5703 2.99219L37.125 3.00781L37.3125 3.22656ZM31.9141 7.77344L32.1094 7.96094V20V32.0391L31.9141 32.2266L31.7266 32.4219H20H8.27344L8.08594 32.2266L7.89062 32.0391V20V7.96094L8.08594 7.77344L8.27344 7.57812H20H31.7266L31.9141 7.77344ZM6.375 10.8047C6.55469 11.0156 6.5625 11.0547 6.5625 12.4297V13.8438L6.33594 14.0703L6.10938 14.2969H4.53125H2.95312L2.72656 14.0703L2.5 13.8438V12.4453C2.5 10.9531 2.53906 10.7812 2.92188 10.625C3.00781 10.5859 3.78125 10.5625 4.63281 10.5703L6.1875 10.5859L6.375 10.8047ZM37.3125 10.8047C37.4922 11.0156 37.5 11.0547 37.5 12.4297V13.8438L37.2734 14.0703L37.0469 14.2969H35.4688H33.8906L33.6641 14.0703L33.4375 13.8438V12.4453C33.4375 10.9531 33.4766 10.7812 33.8594 10.625C33.9453 10.5859 34.7188 10.5625 35.5703 10.5703L37.125 10.5859L37.3125 10.8047ZM6.33594 18.3516L6.5625 18.5781V20V21.4219L6.33594 21.6484L6.10938 21.875H4.53125H2.95312L2.72656 21.6484L2.5 21.4219V20V18.5781L2.72656 18.3516L2.95312 18.125H4.53125H6.10938L6.33594 18.3516ZM37.2734 18.3516L37.5 18.5781V20V21.4219L37.2734 21.6484L37.0469 21.875H35.4688H33.8906L33.6641 21.6484L33.4375 21.4219V20V18.5781L33.6641 18.3516L33.8906 18.125H35.4688H37.0469L37.2734 18.3516ZM6.33594 25.9297L6.5625 26.1562V27.5703C6.5625 28.9453 6.55469 28.9844 6.375 29.1953L6.1875 29.4141H4.53125H2.875L2.6875 29.1953C2.50781 28.9844 2.5 28.9453 2.5 27.5703V26.1562L2.72656 25.9297L2.95312 25.7031H4.53125H6.10938L6.33594 25.9297ZM37.2734 25.9297L37.5 26.1562V27.5703C37.5 28.9453 37.4922 28.9844 37.3125 29.1953L37.125 29.4141H35.4688H33.8125L33.625 29.1953C33.4453 28.9844 33.4375 28.9453 33.4375 27.5703V26.1562L33.6641 25.9297L33.8906 25.7031H35.4688H37.0469L37.2734 25.9297ZM6.33594 33.5078L6.5625 33.7344V35.1484C6.5625 36.5234 6.55469 36.5625 6.375 36.7734L6.1875 36.9922H4.53125H2.875L2.6875 36.7734C2.50781 36.5625 2.5 36.5234 2.5 35.1484V33.7344L2.72656 33.5078L2.95312 33.2812H4.53125H6.10938L6.33594 33.5078ZM37.2734 33.5078L37.5 33.7344V35.1484C37.5 36.5234 37.4922 36.5625 37.3125 36.7734L37.125 36.9922H35.4688H33.8125L33.625 36.7734C33.4453 36.5625 33.4375 36.5234 33.4375 35.1484V33.7344L33.6641 33.5078L33.8906 33.2812H35.4688H37.0469L37.2734 33.5078Z" fill="white"/>
<path d="M3.70314 4.24219C3.6797 4.30469 3.67189 4.60938 3.68751 4.92969L3.71095 5.50781L4.5547 5.53125L5.39845 5.55469L5.37501 4.86719L5.35157 4.17969L4.54689 4.15625C3.92189 4.14063 3.73439 4.15625 3.70314 4.24219Z" fill="white"/>
<path d="M34.6641 4.1875C34.6328 4.21875 34.6094 4.53906 34.6094 4.89844V5.55469L35.4531 5.53125L36.2891 5.50781V4.84375V4.17969L35.5 4.15625C35.0703 4.14844 34.6953 4.15625 34.6641 4.1875Z" fill="white"/>
<path d="M9.0625 20V31.25H20H30.9375V20V8.75H20H9.0625V20ZM16.1328 13.1562C16.6562 13.3984 18.3516 14.4297 18.5781 14.6328C18.8125 14.8516 18.8047 15.1875 18.5469 15.4453C18.2656 15.7266 18.1094 15.6719 16.7422 14.8516C16.0938 14.4609 15.5156 14.1406 15.4609 14.1406C15.4062 14.1406 15.2969 14.1953 15.2188 14.2734C15.0859 14.3906 15.0781 14.6719 15.0781 19.9844C15.0781 25.0781 15.0859 25.5859 15.2109 25.7188C15.2812 25.7969 15.3906 25.8594 15.4609 25.8594C15.5312 25.8516 17.6797 24.5938 20.2344 23.0625L24.8828 20.2656V20C24.8828 19.7344 24.875 19.7344 22.5 18.3047C20.2031 16.9297 19.9297 16.7266 19.9219 16.3828C19.9219 16.1719 20.2734 15.8594 20.5078 15.8594C20.7422 15.8594 25.3906 18.6172 25.6797 18.9219C26.2422 19.5156 26.2109 20.6094 25.6172 21.1484C25.2812 21.4531 16.1719 26.8672 15.8438 26.9609C15.2344 27.1172 14.5391 26.8438 14.1641 26.3047L13.9453 25.9922L13.9219 20.0938C13.9062 14.2344 13.9062 14.1953 14.0703 13.8594C14.2422 13.4922 14.5469 13.2344 14.9922 13.0781C15.4062 12.9297 15.6953 12.9453 16.1328 13.1562Z" fill="white"/>
<path d="M3.70314 11.8203C3.6797 11.8828 3.67189 12.1875 3.68751 12.5078L3.71095 13.0859H4.53126H5.35157V12.4219V11.7578L4.54689 11.7344C3.92189 11.7187 3.73439 11.7344 3.70314 11.8203Z" fill="white"/>
<path d="M34.6406 11.8203C34.6171 11.8828 34.6093 12.1875 34.625 12.5078L34.6484 13.0859H35.4687H36.289V12.4219V11.7578L35.4843 11.7344C34.8593 11.7187 34.6718 11.7344 34.6406 11.8203Z" fill="white"/>
<path d="M3.70314 19.3984C3.6797 19.4609 3.67189 19.7656 3.68751 20.0859L3.71095 20.6641H4.53126H5.35157V20V19.3359L4.54689 19.3125C3.92189 19.2969 3.73439 19.3125 3.70314 19.3984Z" fill="white"/>
<path d="M34.6406 19.3984C34.6171 19.4609 34.6093 19.7656 34.625 20.0859L34.6484 20.6641H35.4687H36.289V20V19.3359L35.4843 19.3125C34.8593 19.2969 34.6718 19.3125 34.6406 19.3984Z" fill="white"/>
<path d="M3.70314 26.9766C3.6797 27.0391 3.67189 27.3437 3.68751 27.6641L3.71095 28.2422H4.53126H5.35157V27.5781V26.9141L4.54689 26.8906C3.92189 26.875 3.73439 26.8906 3.70314 26.9766Z" fill="white"/>
<path d="M34.6406 26.9766C34.6171 27.0391 34.6093 27.3437 34.625 27.6641L34.6484 28.2422H35.4687H36.289V27.5781V26.9141L35.4843 26.8906C34.8593 26.875 34.6718 26.8906 34.6406 26.9766Z" fill="white"/>
<path d="M3.70314 34.5547C3.6797 34.6172 3.67189 34.9219 3.68751 35.2422L3.71095 35.8203H4.53126H5.35157L5.37501 35.1328L5.39845 34.4531H4.57032C3.95314 34.4531 3.73439 34.4766 3.70314 34.5547Z" fill="white"/>
<path d="M34.625 35.1328L34.6484 35.8203H35.4687H36.2891V35.1563V34.4922L35.4453 34.4688L34.6016 34.4453L34.625 35.1328Z" fill="white"/>
<path d="M0 39.7812C0 39.9687 0.03125 40 0.21875 40C0.398438 39.9922 0.40625 39.9844 0.296875 39.9141C0.21875 39.875 0.125 39.7812 0.0859375 39.7031C0.015625 39.5937 0.0078125 39.6016 0 39.7812Z" fill="white"/>
<path d="M39.7891 39.8125L39.6172 40H39.8047C39.961 40 40 39.9609 40 39.8047C40 39.5781 40.0078 39.5781 39.7891 39.8125Z" fill="white"/>
</g>
<defs>
<clipPath id="clip0_317_53">
<rect width="40" height="40" fill="white"/>
</clipPath>
</defs>
</svg>
